<?xml version="1.0" standalone="no"?><svg xmlns="http://www.w3.org/2000/svg" viewBox="0 0 1440 320"><path fill="seagreen" fill-opacity="1" d="M0,224L34.3,213.3C68.6,203,137,181,206,165.3C274.3,149,343,139,411,160C480,181,549,235,617,213.3C685.7,192,754,96,823,101.3C891.4,107,960,213,1029,240C1097.1,267,1166,213,1234,186.7C1302.9,160,1371,160,1406,160L1440,160L1440,320L1405.7,320C1371.4,320,1303,320,1234,320C1165.7,320,1097,320,1029,320C960,320,891,320,823,320C754.3,320,686,320,617,320C548.6,320,480,320,411,320C342.9,320,274,320,206,320C137.1,320,69,320,34,320L0,320Z"></path></svg>